<svg xmlns="http://www.w3.org/2000/svg" version="1.1" xmlns:xlink="http://www.w3.org/1999/xlink" xmlns:svgjs="http://svgjs.com/svgjs" width="1920" height="1080" preserveAspectRatio="none" viewBox="0 0 1920 1080"><g mask="url(&quot;#SvgjsMask1389&quot;)" fill="none"><rect width="1920" height="1080" x="0" y="0" fill="rgba(127, 43, 94, 1)"></rect><path d="M0,647.362C128.419,649.264,258.834,639.869,370.906,577.14C486.923,512.203,556.273,396.575,636.913,290.868C740.739,154.766,921.597,39.864,911.115,-130.998C900.747,-299.997,715.646,-398.314,587.82,-509.349C476.068,-606.422,350.356,-673.261,215.807,-734.971C58.786,-806.988,-102.139,-959.683,-264.316,-900.178C-428.621,-839.892,-438.462,-608.829,-531.683,-460.706C-607.776,-339.799,-710.628,-242.886,-761.899,-109.545C-824.376,52.938,-948.152,242.662,-859.814,392.664C-769.104,546.695,-535.306,515.487,-363.912,566.258C-242.287,602.286,-126.835,645.484,0,647.362" fill="#551d3f"></path><path d="M1920 1765.797C2093.451 1799.193 2265.857 1940.232 2428.392 1871.0729999999999 2588.7889999999998 1802.824 2661.2 1605.534 2697.382 1435.018 2730.027 1281.172 2667.578 1128.806 2617.532 979.71 2575.343 854.02 2494.361 754.024 2429.908 638.163 2345.587 486.587 2329.921 281.322 2180.253 193.659 2026.742 103.745 1815.051 103.23900000000003 1657.408 185.69399999999996 1504.045 265.90999999999997 1496.078 483.706 1380.103 612.1759999999999 1260.3890000000001 744.788 1021.065 771.7760000000001 972.997 943.842 925.506 1113.844 1047.1689999999999 1288.5430000000001 1151.3490000000002 1431.031 1243.1970000000001 1556.653 1380.894 1634.723 1523.568 1696.8609999999999 1649.0810000000001 1751.525 1785.569 1739.914 1920 1765.797" fill="#a9397d"></path></g><defs><mask id="SvgjsMask1389"><rect width="1920" height="1080" fill="#ffffff"></rect></mask></defs></svg>